<svg width="60" height="60" viewBox="0 0 60 60" fill="none" xmlns="http://www.w3.org/2000/svg">
<path opacity="0.3" d="M7.5 27.5L52.5 10L45 50L32.5 42.5L24.6875 46.25L20 35L7.5 27.5Z" fill="black"/>
<path d="M53.6249 8.44251C52.4124 7.40501 50.6024 7.21251 48.7874 7.93001C47.6624 8.37251 30.0349 15.79 13.6024 22.7075L8.17495 24.9925C6.07245 25.845 5.00745 27.2275 5.00745 29.095C5.00745 30.4025 5.56245 32.18 8.20245 33.225L17.3699 36.8925C18.1624 39.27 20.0024 44.79 20.4649 46.2575C20.7399 47.1275 21.4349 49.32 23.1899 49.8325C23.5499 49.955 23.9249 50.0175 24.3074 50.0175C25.4149 50.0175 26.2124 49.5025 26.6024 49.2025L32.4249 44.2775L39.5024 50.82C39.7749 51.0975 41.2149 52.5 43.1524 52.5C45.5699 52.5 47.4049 50.4875 47.7874 48.54C47.9949 47.4725 54.8174 13.2175 54.8174 13.2225C55.4299 10.475 54.3324 9.05001 53.6249 8.44251ZM42.9149 47.165L32.5724 37.6L24.9974 44.0125C24.0999 41.245 21.7449 34.2075 21.7449 34.2075L21.3799 33.11L11.3274 29.09L15.5449 27.3175C26.2924 22.7925 45.4349 14.735 49.7749 12.93C48.8324 17.655 43.6949 43.4475 42.9149 47.165Z" fill="black"/>
<path d="M42.0001 20C41.6876 20 41.2651 20.2975 41.0401 20.4375C37.8201 22.445 21.6751 31.6325 17.2476 34.1475C18.4951 34.6475 19.3751 35 19.3751 35C19.3751 35 22.2526 43.6125 22.8501 45.5C23.4476 47.39 23.9276 47.435 23.9276 47.435C24.0601 47.4925 24.1901 47.515 24.3101 47.515C24.4076 47.515 24.4751 47.48 24.5576 47.4575L27.5001 35.9375C27.5001 35.9375 40.9076 22.3675 41.7151 21.5775C42.3651 20.945 42.5001 20.7225 42.5001 20.5025C42.5001 20.21 42.3476 20 42.0001 20Z" fill="black"/>
</svg>
